# xmcd
#
# Track frame offsets:
#	150
#	17140
#	36980
#	65027
#	96362
#	120116
#	135018
#	161703
#	184075
#	204959
#	232917
#
# Disc length: 3413 seconds
# Revision: 0
# Processed by: cddbd v1.5.2PL0 Copyright (c) Steve Scherf et al.
# Submitted via: dBpowerAMP V12.0
#
DISCID=870d530b
DTITLE=The Bluesbones - Saved by the Blues
DYEAR=2015
DGENRE=Blues
TTITLE0=Find Me a Woman
TTITLE1=I'm on the Road Again
TTITLE2=I Try
TTITLE3=Devil's Bride
TTITLE4=I'm Still Your Man
TTITLE5=Saved by the Blues
TTITLE6=Moonshine
TTITLE7=Crazy
TTITLE8=Call Me
TTITLE9=Runaway
TTITLE10=Wrong
EXTD=
EXTT0=
EXTT1=
EXTT2=
EXTT3=
EXTT4=
EXTT5=
EXTT6=
EXTT7=
EXTT8=
EXTT9=
EXTT10=
PLAYORDER=
